<?xml version="1.0" encoding="utf-8"?>
<!-- Generator: Adobe Illustrator 27.9.0, SVG Export Plug-In . SVG Version: 6.00 Build 0)  -->
<svg version="1.1" id="Camada_1" xmlns="http://www.w3.org/2000/svg" xmlns:xlink="http://www.w3.org/1999/xlink" x="0px" y="0px"
	 viewBox="0 0 1080 415" style="enable-background:new 0 0 1080 415;" xml:space="preserve">
<style type="text/css">
	.st0{fill:#7A12B6;}
	.st1{fill:#F5A40C;}
	.st2{fill:#00A94F;}
	.st3{fill:#FFFFFF;}
	.st4{fill:#070707;}
	.st5{fill:#4CAF50;}
	.st6{fill:#FF5722;}
	.st7{fill:#673AB7;}
	.st8{fill:url(#SVGID_1_);}
	.st9{fill:url(#SVGID_00000158001118989218300470000004305630211908157318_);}
</style>
<rect x="-1158.64" y="3152.3" class="st0" width="1080" height="1080"/>
<rect x="-1158.64" y="1994.17" class="st1" width="1080" height="1080"/>
<rect x="-1158.64" y="846.26" class="st2" width="1080" height="1080"/>
<g>
	<g>
		<g>
			<path class="st3" d="M185.18,81.69c0-11.98,9.07-21.05,21.04-21.05c13.27,0,20.72,9.07,20.72,21.05v122.39
				c0,49.54-25.58,87.42-79,87.42c-25.25,0-67.67-11.01-67.67-41.77c0-10.36,6.47-18.45,17.16-18.45
				c15.86,0,17.81,19.75,45.98,19.75c29.79,0,41.77-19.75,41.77-46.95L185.18,81.69L185.18,81.69z"/>
		</g>
		<g>
			<path class="st3" d="M247.98,172.35c0-72.85,42.42-115.26,107.17-115.26c64.76,0,107.49,42.42,107.49,115.26
				c0,73.17-42.74,119.15-107.49,119.15C290.39,291.5,247.98,245.52,247.98,172.35z M422.49,172.35c0-45.01-26.87-73.5-67.35-73.5
				c-40.15,0-66.7,28.49-66.7,73.5c0,45.33,26.55,75.11,66.7,75.11C395.62,247.47,422.49,217.68,422.49,172.35z"/>
		</g>
		<g>
			<path class="st3" d="M901.62,285.03c-14.89,0-24.28-7.77-24.28-21.05c0-13.27,9.71-21.04,24.28-21.04h49.22
				c-6.15-33.35-36.59-114.3-54.4-128.87c-20.08,19.75-50.83,102.96-59.58,145.7c-3.88,18.13-9.39,27.52-23.63,27.52
				c-15.54,0-21.37-9.71-21.37-21.05c0-18.13,11.01-54.07,25.9-91.3c18.45-46.62,47.59-114.3,78.35-114.3
				c30.43,0,60.22,67.67,78.35,114.3c14.25,37.23,25.26,72.2,25.26,90.65c0,11.66-5.18,19.43-21.05,19.43L901.62,285.03
				L901.62,285.03z"/>
		</g>
		<g>
			<path class="st3" d="M489.63,74c-3.85,0-7.72-1.31-10.9-3.99c-7.14-6.02-8.05-16.69-2.02-23.83
				c7.28-8.63,27.79-29.14,60.88-33.15c40.44-4.89,68.63,18.16,76.3,25.35c6.81,6.39,7.16,17.09,0.77,23.91
				c-6.38,6.81-17.08,7.16-23.91,0.78c-3.53-3.31-22.53-19.67-49.11-16.45c-21.16,2.56-34.38,15.8-39.09,21.38
				C499.22,71.96,494.45,74,489.63,74z"/>
		</g>
		<g>
			<path class="st3" d="M675.46,74c-3.85,0-7.72-1.31-10.89-3.98c-7.14-6.02-8.05-16.69-2.03-23.83
				c7.28-8.63,27.78-29.15,60.88-33.15c40.5-4.9,68.65,18.17,76.31,25.36c6.81,6.39,7.15,17.1,0.76,23.91
				c-6.39,6.8-17.1,7.15-23.91,0.76c-3.53-3.31-22.44-19.65-49.1-16.44C706.31,49.19,693.1,62.43,688.4,68
				C685.06,71.96,680.28,74,675.46,74z"/>
		</g>
		<g>
			<path class="st3" d="M545.98,264.38c-9.34,0-16.91-7.57-16.91-16.91V98.85c0-9.34,7.57-16.91,16.91-16.91
				c9.34,0,16.91,7.57,16.91,16.91v148.61C562.9,256.81,555.32,264.38,545.98,264.38z"/>
		</g>
		<g>
			<path class="st3" d="M731.81,264.38c-9.34,0-16.91-7.57-16.91-16.91V98.85c0-9.34,7.57-16.91,16.91-16.91s16.91,7.57,16.91,16.91
				v148.61C748.73,256.81,741.15,264.38,731.81,264.38z"/>
		</g>
	</g>
	<g>
		<path class="st3" d="M271.8,347.98h11.62l13.68,37.83l13.67-37.83h11.51l-19.12,48.73h-12.13L271.8,347.98z"/>
		<path class="st3" d="M351.98,356.52h-7.4l1.03-8.53h17.58v48.73h-11.2L351.98,356.52L351.98,356.52z M351.06,328.55h12.23v9.25
			h-12.23V328.55z"/>
		<path class="st3" d="M394.32,397.07c-3.08-0.44-5.62-1.04-7.61-1.8v-9.46c2.27,0.89,4.78,1.58,7.56,2.06s5.5,0.72,8.17,0.72
			c3.97,0,6.75-0.34,8.33-1.03c1.58-0.68,2.36-2.02,2.36-4.01c0-1.78-0.72-3.1-2.16-3.96c-1.44-0.85-4.15-1.9-8.12-3.13l-3.08-1.03
			c-4.94-1.65-8.53-3.48-10.79-5.5c-2.27-2.02-3.39-5.02-3.39-8.99c0-4.59,1.64-8.07,4.93-10.43c3.29-2.36,8.43-3.54,15.42-3.54
			c2.67,0,5.29,0.2,7.86,0.61c2.57,0.41,4.78,0.92,6.63,1.54v9.35c-1.85-0.75-3.92-1.34-6.22-1.75s-4.47-0.62-6.53-0.62
			c-3.77,0-6.51,0.33-8.22,0.98c-1.72,0.65-2.57,1.87-2.57,3.65c0,1.58,0.65,2.76,1.95,3.54c1.3,0.79,3.87,1.8,7.71,3.03l2.26,0.72
			c3.97,1.24,7.06,2.49,9.25,3.75c2.19,1.27,3.79,2.81,4.78,4.63c1,1.82,1.49,4.16,1.49,7.04c0,9.53-6.82,14.29-20.46,14.29
			C400.6,397.74,397.41,397.52,394.32,397.07z"/>
		<path class="st3" d="M451.32,392.86c-3.12-3.25-4.68-7.97-4.68-14.13v-30.74h11.21v30.74c0,3.63,0.89,6.3,2.67,8.02
			c1.78,1.71,4.53,2.57,8.23,2.57c2.67,0,5.17-0.5,7.5-1.49c2.33-1,4.38-2.38,6.17-4.17v-35.67h11.1v48.73h-10.18l-0.51-5.04
			c-5.14,4.04-11.17,6.06-18.09,6.06C458.91,397.74,454.44,396.11,451.32,392.86z"/>
		<path class="st3" d="M520.76,393.89c-3.29-2.57-4.93-6.25-4.93-11.05c0-4.79,1.63-8.58,4.88-11.36c3.26-2.77,8.14-4.16,14.65-4.16
			h15.63v-2.16c0-2.4-0.36-4.27-1.08-5.6c-0.72-1.34-2.04-2.31-3.96-2.93c-1.92-0.61-4.66-0.92-8.22-0.92
			c-5.76,0-11.14,0.86-16.14,2.57v-8.33c2.33-0.89,5.07-1.61,8.22-2.16c3.15-0.55,6.48-0.82,9.97-0.82c7.27,0,12.73,1.47,16.4,4.42
			c3.67,2.95,5.5,7.61,5.5,13.98v31.35h-9.56l-0.72-4.94c-2.06,1.99-4.56,3.48-7.5,4.47c-2.95,0.99-6.55,1.49-10.8,1.49
			C528.16,397.74,524.04,396.46,520.76,393.89z M544.71,388.08c2.53-1.09,4.62-2.64,6.27-4.62v-8.53h-15.42
			c-3.29,0-5.67,0.62-7.14,1.85s-2.21,3.19-2.21,5.86c0,2.46,0.82,4.27,2.47,5.39c1.64,1.13,4.11,1.7,7.4,1.7
			C539.3,389.72,542.18,389.18,544.71,388.08z"/>
		<path class="st3" d="M586.95,394.76c-1.99-1.99-2.98-5.21-2.98-9.66v-57.67h11.21v56.64c0,1.85,0.33,3.13,0.98,3.85
			c0.65,0.72,1.69,1.08,3.13,1.08c1.65,0,3.22-0.2,4.73-0.61v8.12c-2.26,0.83-4.9,1.24-7.91,1.24
			C591.99,397.74,588.94,396.75,586.95,394.76z"/>
		<path class="st3" d="M661.41,393.89c-3.29-2.57-4.93-6.25-4.93-11.05c0-4.79,1.63-8.58,4.88-11.36c3.26-2.77,8.14-4.16,14.65-4.16
			h15.62v-2.16c0-2.4-0.36-4.27-1.08-5.6c-0.72-1.34-2.04-2.31-3.96-2.93c-1.92-0.61-4.66-0.92-8.22-0.92
			c-5.76,0-11.14,0.86-16.14,2.57v-8.33c2.33-0.89,5.07-1.61,8.22-2.16c3.15-0.55,6.48-0.82,9.97-0.82c7.27,0,12.73,1.47,16.4,4.42
			c3.67,2.95,5.5,7.61,5.5,13.98v31.35h-9.56l-0.72-4.94c-2.06,1.99-4.56,3.48-7.5,4.47c-2.95,0.99-6.55,1.49-10.8,1.49
			C668.82,397.74,664.7,396.46,661.41,393.89z M685.37,388.08c2.53-1.09,4.62-2.64,6.27-4.62v-8.53h-15.42
			c-3.29,0-5.67,0.62-7.14,1.85c-1.47,1.23-2.21,3.19-2.21,5.86c0,2.46,0.82,4.27,2.47,5.39c1.64,1.13,4.11,1.7,7.4,1.7
			C679.95,389.72,682.83,389.18,685.37,388.08z"/>
		<path class="st3" d="M724.63,347.98h10.28l0.61,5.66c2.33-1.51,5.11-2.88,8.33-4.12c3.22-1.23,6.41-2.09,9.56-2.57v8.53
			c-2.95,0.55-6.13,1.39-9.56,2.52s-6.1,2.31-8.02,3.55v35.16h-11.21v-48.73H724.63z"/>
		<path class="st3" d="M786.82,393.68c-2.6-2.7-3.91-6.53-3.91-11.46v-25.49h-7.2v-8.74h7.2v-11.2l11.1-3.39V348h12.95l-0.72,8.74
			h-12.23v24.88c0,2.81,0.63,4.78,1.9,5.91c1.26,1.13,3.41,1.7,6.42,1.7c1.85,0,3.8-0.34,5.86-1.03v7.91
			c-2.68,1.09-5.93,1.65-9.77,1.65C793.29,397.74,789.42,396.39,786.82,393.68z"/>
	</g>
</g>
<g>
	<g>
		<g>
			<path class="st4" d="M-973.46,81.69c0-11.98,9.07-21.05,21.04-21.05c13.27,0,20.72,9.07,20.72,21.05v122.39
				c0,49.54-25.58,87.42-79,87.42c-25.25,0-67.67-11.01-67.67-41.77c0-10.36,6.47-18.45,17.16-18.45
				c15.86,0,17.81,19.75,45.98,19.75c29.79,0,41.77-19.75,41.77-46.95L-973.46,81.69L-973.46,81.69z"/>
		</g>
		<g>
			<path class="st4" d="M-910.66,172.35c0-72.85,42.42-115.26,107.17-115.26c64.76,0,107.49,42.42,107.49,115.26
				c0,73.17-42.74,119.15-107.49,119.15C-868.25,291.5-910.66,245.52-910.66,172.35z M-736.15,172.35c0-45.01-26.87-73.5-67.35-73.5
				c-40.15,0-66.7,28.49-66.7,73.5c0,45.33,26.55,75.11,66.7,75.11C-763.02,247.47-736.15,217.68-736.15,172.35z"/>
		</g>
		<g>
			<path class="st4" d="M-257.02,285.03c-14.89,0-24.28-7.77-24.28-21.05c0-13.27,9.71-21.04,24.28-21.04h49.22
				c-6.15-33.35-36.59-114.3-54.4-128.87c-20.08,19.75-50.83,102.96-59.58,145.7c-3.88,18.13-9.39,27.52-23.63,27.52
				c-15.54,0-21.37-9.71-21.37-21.05c0-18.13,11.01-54.07,25.9-91.3c18.45-46.62,47.59-114.3,78.35-114.3
				c30.43,0,60.22,67.67,78.35,114.3c14.25,37.23,25.26,72.2,25.26,90.65c0,11.66-5.18,19.43-21.05,19.43L-257.02,285.03
				L-257.02,285.03z"/>
		</g>
		<g>
			<path class="st4" d="M-669.01,74c-3.85,0-7.72-1.31-10.9-3.99c-7.14-6.02-8.05-16.69-2.02-23.83
				c7.28-8.63,27.79-29.14,60.88-33.15c40.44-4.89,68.63,18.16,76.3,25.35c6.81,6.39,7.16,17.09,0.77,23.91
				c-6.38,6.81-17.08,7.16-23.91,0.78c-3.53-3.31-22.53-19.67-49.11-16.45c-21.16,2.56-34.38,15.8-39.09,21.38
				C-659.41,71.96-664.19,74-669.01,74z"/>
		</g>
		<g>
			<path class="st4" d="M-483.18,74c-3.85,0-7.72-1.31-10.89-3.98c-7.14-6.02-8.05-16.69-2.03-23.83
				c7.28-8.63,27.78-29.15,60.88-33.15c40.5-4.9,68.65,18.17,76.31,25.36c6.81,6.39,7.15,17.1,0.76,23.91
				c-6.39,6.8-17.1,7.15-23.91,0.76c-3.53-3.31-22.44-19.65-49.1-16.44c-21.17,2.56-34.38,15.8-39.08,21.37
				C-473.58,71.96-478.36,74-483.18,74z"/>
		</g>
		<g>
			<path class="st4" d="M-612.65,264.38c-9.34,0-16.91-7.57-16.91-16.91V98.85c0-9.34,7.57-16.91,16.91-16.91
				c9.34,0,16.91,7.57,16.91,16.91v148.61C-595.74,256.81-603.32,264.38-612.65,264.38z"/>
		</g>
		<g>
			<path class="st4" d="M-426.82,264.38c-9.34,0-16.91-7.57-16.91-16.91V98.85c0-9.34,7.57-16.91,16.91-16.91
				s16.91,7.57,16.91,16.91v148.61C-409.91,256.81-417.49,264.38-426.82,264.38z"/>
		</g>
	</g>
	<g>
		<path class="st4" d="M-886.84,347.98h11.62l13.68,37.83l13.67-37.83h11.51l-19.12,48.73h-12.13L-886.84,347.98z"/>
		<path class="st4" d="M-806.66,356.52h-7.4l1.03-8.53h17.58v48.73h-11.2v-40.2H-806.66z M-807.58,328.55h12.23v9.25h-12.23V328.55z
			"/>
		<path class="st4" d="M-764.31,397.07c-3.08-0.44-5.62-1.04-7.61-1.8v-9.46c2.27,0.89,4.78,1.58,7.56,2.06
			c2.78,0.48,5.5,0.72,8.17,0.72c3.97,0,6.75-0.34,8.33-1.03c1.58-0.68,2.36-2.02,2.36-4.01c0-1.78-0.72-3.1-2.16-3.96
			c-1.44-0.85-4.15-1.9-8.12-3.13l-3.08-1.03c-4.94-1.65-8.53-3.48-10.79-5.5c-2.27-2.02-3.39-5.02-3.39-8.99
			c0-4.59,1.64-8.07,4.93-10.43s8.43-3.54,15.42-3.54c2.67,0,5.29,0.2,7.86,0.61s4.78,0.92,6.63,1.54v9.35
			c-1.85-0.75-3.92-1.34-6.22-1.75s-4.47-0.62-6.53-0.62c-3.77,0-6.51,0.33-8.22,0.98c-1.72,0.65-2.57,1.87-2.57,3.65
			c0,1.58,0.65,2.76,1.95,3.54c1.3,0.79,3.87,1.8,7.71,3.03l2.26,0.72c3.97,1.24,7.06,2.49,9.25,3.75c2.19,1.27,3.79,2.81,4.78,4.63
			c1,1.82,1.49,4.16,1.49,7.04c0,9.53-6.82,14.29-20.46,14.29C-758.04,397.74-761.23,397.52-764.31,397.07z"/>
		<path class="st4" d="M-707.31,392.86c-3.12-3.25-4.68-7.97-4.68-14.13v-30.74h11.21v30.74c0,3.63,0.89,6.3,2.67,8.02
			c1.78,1.71,4.53,2.57,8.23,2.57c2.67,0,5.17-0.5,7.5-1.49c2.33-1,4.38-2.38,6.17-4.17v-35.67h11.1v48.73h-10.18l-0.51-5.04
			c-5.14,4.04-11.17,6.06-18.09,6.06C-699.73,397.74-704.2,396.11-707.31,392.86z"/>
		<path class="st4" d="M-637.88,393.89c-3.29-2.57-4.93-6.25-4.93-11.05c0-4.79,1.63-8.58,4.88-11.36
			c3.26-2.77,8.14-4.16,14.65-4.16h15.63v-2.16c0-2.4-0.36-4.27-1.08-5.6c-0.72-1.34-2.04-2.31-3.96-2.93
			c-1.92-0.61-4.66-0.92-8.22-0.92c-5.76,0-11.14,0.86-16.14,2.57v-8.33c2.33-0.89,5.07-1.61,8.22-2.16
			c3.15-0.55,6.48-0.82,9.97-0.82c7.27,0,12.73,1.47,16.4,4.42c3.67,2.95,5.5,7.61,5.5,13.98v31.35h-9.56l-0.72-4.94
			c-2.06,1.99-4.56,3.48-7.5,4.47c-2.95,0.99-6.55,1.49-10.8,1.49C-630.48,397.74-634.59,396.46-637.88,393.89z M-613.93,388.08
			c2.53-1.09,4.62-2.64,6.27-4.62v-8.53h-15.42c-3.29,0-5.67,0.62-7.14,1.85s-2.21,3.19-2.21,5.86c0,2.46,0.82,4.27,2.47,5.39
			c1.64,1.13,4.11,1.7,7.4,1.7C-619.34,389.72-616.46,389.18-613.93,388.08z"/>
		<path class="st4" d="M-571.68,394.76c-1.99-1.99-2.98-5.21-2.98-9.66v-57.67h11.21v56.64c0,1.85,0.33,3.13,0.98,3.85
			c0.65,0.72,1.69,1.08,3.13,1.08c1.65,0,3.22-0.2,4.73-0.61v8.12c-2.26,0.83-4.9,1.24-7.91,1.24
			C-566.64,397.74-569.7,396.75-571.68,394.76z"/>
		<path class="st4" d="M-497.23,393.89c-3.29-2.57-4.93-6.25-4.93-11.05c0-4.79,1.63-8.58,4.88-11.36
			c3.26-2.77,8.14-4.16,14.65-4.16H-467v-2.16c0-2.4-0.36-4.27-1.08-5.6c-0.72-1.34-2.04-2.31-3.96-2.93
			c-1.92-0.61-4.66-0.92-8.22-0.92c-5.76,0-11.14,0.86-16.14,2.57v-8.33c2.33-0.89,5.07-1.61,8.22-2.16s6.48-0.82,9.97-0.82
			c7.27,0,12.73,1.47,16.4,4.42c3.67,2.95,5.5,7.61,5.5,13.98v31.35h-9.56l-0.72-4.94c-2.06,1.99-4.56,3.48-7.5,4.47
			c-2.95,0.99-6.55,1.49-10.8,1.49C-489.82,397.74-493.94,396.46-497.23,393.89z M-473.27,388.08c2.53-1.09,4.62-2.64,6.27-4.62
			v-8.53h-15.42c-3.29,0-5.67,0.62-7.14,1.85s-2.21,3.19-2.21,5.86c0,2.46,0.82,4.27,2.47,5.39c1.64,1.13,4.11,1.7,7.4,1.7
			C-478.68,389.72-475.81,389.18-473.27,388.08z"/>
		<path class="st4" d="M-434.01,347.98h10.28l0.61,5.66c2.33-1.51,5.11-2.88,8.33-4.12c3.22-1.23,6.41-2.09,9.56-2.57v8.53
			c-2.95,0.55-6.13,1.39-9.56,2.52s-6.1,2.31-8.02,3.55v35.16h-11.21v-48.73H-434.01z"/>
		<path class="st4" d="M-371.82,393.68c-2.6-2.7-3.91-6.53-3.91-11.46v-25.49h-7.2v-8.74h7.2v-11.2l11.1-3.39V348h12.95l-0.72,8.74
			h-12.23v24.88c0,2.81,0.63,4.78,1.9,5.91c1.26,1.13,3.41,1.7,6.42,1.7c1.85,0,3.8-0.34,5.86-1.03v7.91
			c-2.68,1.09-5.93,1.65-9.77,1.65C-365.34,397.74-369.22,396.39-371.82,393.68z"/>
	</g>
</g>
<g>
	<g>
		<g>
			<path class="st3" d="M-973.46,1262.9c0-11.98,9.07-21.05,21.04-21.05c13.27,0,20.72,9.07,20.72,21.05v122.39
				c0,49.54-25.58,87.42-79,87.42c-25.25,0-67.67-11.01-67.67-41.77c0-10.36,6.47-18.45,17.16-18.45
				c15.86,0,17.81,19.75,45.98,19.75c29.79,0,41.77-19.75,41.77-46.95L-973.46,1262.9L-973.46,1262.9z"/>
		</g>
		<g>
			<path class="st3" d="M-910.66,1353.56c0-72.85,42.42-115.26,107.17-115.26c64.76,0,107.49,42.42,107.49,115.26
				c0,73.17-42.74,119.15-107.49,119.15C-868.25,1472.71-910.66,1426.73-910.66,1353.56z M-736.15,1353.56
				c0-45.01-26.87-73.5-67.35-73.5c-40.15,0-66.7,28.49-66.7,73.5c0,45.33,26.55,75.11,66.7,75.11
				C-763.02,1428.67-736.15,1398.88-736.15,1353.56z"/>
		</g>
		<g>
			<path class="st3" d="M-257.02,1466.23c-14.89,0-24.28-7.77-24.28-21.05s9.71-21.04,24.28-21.04h49.22
				c-6.15-33.35-36.59-114.3-54.4-128.87c-20.08,19.75-50.83,102.96-59.58,145.7c-3.88,18.13-9.39,27.52-23.63,27.52
				c-15.54,0-21.37-9.71-21.37-21.05c0-18.13,11.01-54.07,25.9-91.3c18.45-46.62,47.59-114.3,78.35-114.3
				c30.43,0,60.22,67.67,78.35,114.3c14.25,37.23,25.26,72.2,25.26,90.65c0,11.66-5.18,19.43-21.05,19.43h-77.05V1466.23z"/>
		</g>
		<g>
			<path class="st3" d="M-669.01,1255.21c-3.85,0-7.72-1.31-10.9-3.99c-7.14-6.02-8.05-16.69-2.02-23.83
				c7.28-8.63,27.79-29.14,60.88-33.15c40.44-4.89,68.63,18.16,76.3,25.35c6.81,6.39,7.16,17.09,0.77,23.91
				c-6.38,6.81-17.08,7.16-23.91,0.78c-3.53-3.31-22.53-19.67-49.11-16.45c-21.16,2.56-34.38,15.8-39.09,21.38
				C-659.41,1253.16-664.19,1255.21-669.01,1255.21z"/>
		</g>
		<g>
			<path class="st3" d="M-483.18,1255.21c-3.85,0-7.72-1.31-10.89-3.98c-7.14-6.02-8.05-16.69-2.03-23.83
				c7.28-8.63,27.78-29.15,60.88-33.15c40.5-4.9,68.65,18.17,76.31,25.36c6.81,6.39,7.15,17.1,0.76,23.91
				c-6.39,6.8-17.1,7.15-23.91,0.76c-3.53-3.31-22.44-19.65-49.1-16.44c-21.17,2.56-34.38,15.8-39.08,21.37
				C-473.58,1253.16-478.36,1255.21-483.18,1255.21z"/>
		</g>
		<g>
			<path class="st3" d="M-612.65,1445.59c-9.34,0-16.91-7.57-16.91-16.91v-148.61c0-9.34,7.57-16.91,16.91-16.91
				c9.34,0,16.91,7.57,16.91,16.91v148.61C-595.74,1438.01-603.32,1445.59-612.65,1445.59z"/>
		</g>
		<g>
			<path class="st3" d="M-426.82,1445.59c-9.34,0-16.91-7.57-16.91-16.91v-148.61c0-9.34,7.57-16.91,16.91-16.91
				s16.91,7.57,16.91,16.91v148.61C-409.91,1438.01-417.49,1445.59-426.82,1445.59z"/>
		</g>
	</g>
	<g>
		<path class="st3" d="M-886.84,1529.19h11.62l13.68,37.83l13.67-37.83h11.51l-19.12,48.73h-12.13L-886.84,1529.19z"/>
		<path class="st3" d="M-806.66,1537.72h-7.4l1.03-8.53h17.58v48.73h-11.2v-40.2H-806.66z M-807.58,1509.76h12.23v9.25h-12.23
			V1509.76z"/>
		<path class="st3" d="M-764.31,1578.28c-3.08-0.44-5.62-1.04-7.61-1.8v-9.46c2.27,0.89,4.78,1.58,7.56,2.06
			c2.78,0.48,5.5,0.72,8.17,0.72c3.97,0,6.75-0.34,8.33-1.03c1.58-0.68,2.36-2.02,2.36-4.01c0-1.78-0.72-3.1-2.16-3.96
			c-1.44-0.85-4.15-1.9-8.12-3.13l-3.08-1.03c-4.94-1.65-8.53-3.48-10.79-5.5c-2.27-2.02-3.39-5.02-3.39-8.99
			c0-4.59,1.64-8.07,4.93-10.43c3.29-2.36,8.43-3.54,15.42-3.54c2.67,0,5.29,0.2,7.86,0.61s4.78,0.92,6.63,1.54v9.35
			c-1.85-0.75-3.92-1.34-6.22-1.75s-4.47-0.62-6.53-0.62c-3.77,0-6.51,0.33-8.22,0.98c-1.72,0.65-2.57,1.87-2.57,3.65
			c0,1.58,0.65,2.76,1.95,3.54c1.3,0.79,3.87,1.8,7.71,3.03l2.26,0.72c3.97,1.24,7.06,2.49,9.25,3.75c2.19,1.27,3.79,2.81,4.78,4.63
			c1,1.82,1.49,4.16,1.49,7.04c0,9.53-6.82,14.29-20.46,14.29C-758.04,1578.95-761.23,1578.73-764.31,1578.28z"/>
		<path class="st3" d="M-707.31,1574.06c-3.12-3.25-4.68-7.97-4.68-14.13v-30.74h11.21v30.74c0,3.63,0.89,6.3,2.67,8.02
			c1.78,1.71,4.53,2.57,8.23,2.57c2.67,0,5.17-0.5,7.5-1.49c2.33-1,4.38-2.38,6.17-4.17v-35.67h11.1v48.73h-10.18l-0.51-5.04
			c-5.14,4.04-11.17,6.06-18.09,6.06C-699.73,1578.95-704.2,1577.32-707.31,1574.06z"/>
		<path class="st3" d="M-637.88,1575.09c-3.29-2.57-4.93-6.25-4.93-11.05c0-4.79,1.63-8.58,4.88-11.36
			c3.26-2.77,8.14-4.16,14.65-4.16h15.63v-2.16c0-2.4-0.36-4.27-1.08-5.6c-0.72-1.34-2.04-2.31-3.96-2.93
			c-1.92-0.61-4.66-0.92-8.22-0.92c-5.76,0-11.14,0.86-16.14,2.57v-8.33c2.33-0.89,5.07-1.61,8.22-2.16
			c3.15-0.55,6.48-0.82,9.97-0.82c7.27,0,12.73,1.47,16.4,4.42c3.67,2.95,5.5,7.61,5.5,13.98v31.35h-9.56l-0.72-4.94
			c-2.06,1.99-4.56,3.48-7.5,4.47c-2.95,0.99-6.55,1.49-10.8,1.49C-630.48,1578.95-634.59,1577.66-637.88,1575.09z M-613.93,1569.28
			c2.53-1.09,4.62-2.64,6.27-4.62v-8.53h-15.42c-3.29,0-5.67,0.62-7.14,1.85s-2.21,3.19-2.21,5.86c0,2.46,0.82,4.27,2.47,5.39
			c1.64,1.13,4.11,1.7,7.4,1.7C-619.34,1570.93-616.46,1570.38-613.93,1569.28z"/>
		<path class="st3" d="M-571.68,1575.97c-1.99-1.99-2.98-5.21-2.98-9.66v-57.67h11.21v56.64c0,1.85,0.33,3.13,0.98,3.85
			c0.65,0.72,1.69,1.08,3.13,1.08c1.65,0,3.22-0.2,4.73-0.61v8.12c-2.26,0.83-4.9,1.24-7.91,1.24
			C-566.64,1578.95-569.7,1577.95-571.68,1575.97z"/>
		<path class="st3" d="M-497.23,1575.09c-3.29-2.57-4.93-6.25-4.93-11.05c0-4.79,1.63-8.58,4.88-11.36
			c3.26-2.77,8.14-4.16,14.65-4.16H-467v-2.16c0-2.4-0.36-4.27-1.08-5.6c-0.72-1.34-2.04-2.31-3.96-2.93
			c-1.92-0.61-4.66-0.92-8.22-0.92c-5.76,0-11.14,0.86-16.14,2.57v-8.33c2.33-0.89,5.07-1.61,8.22-2.16s6.48-0.82,9.97-0.82
			c7.27,0,12.73,1.47,16.4,4.42c3.67,2.95,5.5,7.61,5.5,13.98v31.35h-9.56l-0.72-4.94c-2.06,1.99-4.56,3.48-7.5,4.47
			c-2.95,0.99-6.55,1.49-10.8,1.49C-489.82,1578.95-493.94,1577.66-497.23,1575.09z M-473.27,1569.28c2.53-1.09,4.62-2.64,6.27-4.62
			v-8.53h-15.42c-3.29,0-5.67,0.62-7.14,1.85s-2.21,3.19-2.21,5.86c0,2.46,0.82,4.27,2.47,5.39c1.64,1.13,4.11,1.7,7.4,1.7
			C-478.68,1570.93-475.81,1570.38-473.27,1569.28z"/>
		<path class="st3" d="M-434.01,1529.19h10.28l0.61,5.66c2.33-1.51,5.11-2.88,8.33-4.12c3.22-1.23,6.41-2.09,9.56-2.57v8.53
			c-2.95,0.55-6.13,1.39-9.56,2.52s-6.1,2.31-8.02,3.55v35.16h-11.21v-48.73H-434.01z"/>
		<path class="st3" d="M-371.82,1574.88c-2.6-2.7-3.91-6.53-3.91-11.46v-25.49h-7.2v-8.74h7.2v-11.2l11.1-3.39v14.6h12.95
			l-0.72,8.74h-12.23v24.88c0,2.81,0.63,4.78,1.9,5.91c1.26,1.13,3.41,1.7,6.42,1.7c1.85,0,3.8-0.34,5.86-1.03v7.91
			c-2.68,1.09-5.93,1.65-9.77,1.65C-365.34,1578.95-369.22,1577.59-371.82,1574.88z"/>
	</g>
</g>
<g>
	<g>
		<g>
			<path class="st3" d="M-973.46,2410.81c0-11.98,9.07-21.05,21.04-21.05c13.27,0,20.72,9.07,20.72,21.05v122.39
				c0,49.54-25.58,87.42-79,87.42c-25.25,0-67.67-11.01-67.67-41.77c0-10.36,6.47-18.45,17.16-18.45
				c15.86,0,17.81,19.75,45.98,19.75c29.79,0,41.77-19.75,41.77-46.95L-973.46,2410.81L-973.46,2410.81z"/>
		</g>
		<g>
			<path class="st3" d="M-910.66,2501.47c0-72.85,42.42-115.26,107.17-115.26c64.76,0,107.49,42.42,107.49,115.26
				c0,73.17-42.74,119.15-107.49,119.15C-868.25,2620.62-910.66,2574.64-910.66,2501.47z M-736.15,2501.47
				c0-45.01-26.87-73.5-67.35-73.5c-40.15,0-66.7,28.49-66.7,73.5c0,45.33,26.55,75.11,66.7,75.11
				C-763.02,2576.59-736.15,2546.8-736.15,2501.47z"/>
		</g>
		<g>
			<path class="st3" d="M-257.02,2614.15c-14.89,0-24.28-7.77-24.28-21.05s9.71-21.04,24.28-21.04h49.22
				c-6.15-33.35-36.59-114.3-54.4-128.87c-20.08,19.75-50.83,102.96-59.58,145.7c-3.88,18.13-9.39,27.52-23.63,27.52
				c-15.54,0-21.37-9.71-21.37-21.05c0-18.13,11.01-54.07,25.9-91.3c18.45-46.62,47.59-114.3,78.35-114.3
				c30.43,0,60.22,67.67,78.35,114.3c14.25,37.23,25.26,72.2,25.26,90.65c0,11.66-5.18,19.43-21.05,19.43h-77.05V2614.15z"/>
		</g>
		<g>
			<path class="st3" d="M-669.01,2403.12c-3.85,0-7.72-1.31-10.9-3.99c-7.14-6.02-8.05-16.69-2.02-23.83
				c7.28-8.63,27.79-29.14,60.88-33.15c40.44-4.89,68.63,18.16,76.3,25.35c6.81,6.39,7.16,17.09,0.77,23.91
				c-6.38,6.81-17.08,7.16-23.91,0.78c-3.53-3.31-22.53-19.67-49.11-16.45c-21.16,2.56-34.38,15.8-39.09,21.38
				C-659.41,2401.08-664.19,2403.12-669.01,2403.12z"/>
		</g>
		<g>
			<path class="st3" d="M-483.18,2403.12c-3.85,0-7.72-1.31-10.89-3.98c-7.14-6.02-8.05-16.69-2.03-23.83
				c7.28-8.63,27.78-29.15,60.88-33.15c40.5-4.9,68.65,18.17,76.31,25.36c6.81,6.39,7.15,17.09,0.76,23.91
				c-6.39,6.8-17.1,7.15-23.91,0.76c-3.53-3.31-22.44-19.65-49.1-16.44c-21.17,2.56-34.38,15.8-39.08,21.37
				C-473.58,2401.08-478.36,2403.12-483.18,2403.12z"/>
		</g>
		<g>
			<path class="st3" d="M-612.65,2593.5c-9.34,0-16.91-7.57-16.91-16.91v-148.61c0-9.34,7.57-16.91,16.91-16.91
				c9.34,0,16.91,7.57,16.91,16.91v148.61C-595.74,2585.93-603.32,2593.5-612.65,2593.5z"/>
		</g>
		<g>
			<path class="st3" d="M-426.82,2593.5c-9.34,0-16.91-7.57-16.91-16.91v-148.61c0-9.34,7.57-16.91,16.91-16.91
				s16.91,7.57,16.91,16.91v148.61C-409.91,2585.93-417.49,2593.5-426.82,2593.5z"/>
		</g>
	</g>
	<g>
		<path class="st3" d="M-886.84,2677.1h11.62l13.68,37.83l13.67-37.83h11.51l-19.12,48.73h-12.13L-886.84,2677.1z"/>
		<path class="st3" d="M-806.66,2685.64h-7.4l1.03-8.53h17.58v48.73h-11.2v-40.2H-806.66z M-807.58,2657.68h12.23v9.25h-12.23
			V2657.68z"/>
		<path class="st3" d="M-764.31,2726.19c-3.08-0.44-5.62-1.04-7.61-1.8v-9.46c2.27,0.89,4.78,1.58,7.56,2.06
			c2.78,0.48,5.5,0.72,8.17,0.72c3.97,0,6.75-0.34,8.33-1.03c1.58-0.68,2.36-2.02,2.36-4.01c0-1.78-0.72-3.1-2.16-3.96
			c-1.44-0.85-4.15-1.9-8.12-3.13l-3.08-1.03c-4.94-1.65-8.53-3.48-10.79-5.5c-2.27-2.02-3.39-5.02-3.39-8.99
			c0-4.59,1.64-8.07,4.93-10.43s8.43-3.54,15.42-3.54c2.67,0,5.29,0.2,7.86,0.61c2.57,0.41,4.78,0.92,6.63,1.54v9.35
			c-1.85-0.75-3.92-1.34-6.22-1.75s-4.47-0.62-6.53-0.62c-3.77,0-6.51,0.33-8.22,0.98c-1.72,0.65-2.57,1.87-2.57,3.65
			c0,1.58,0.65,2.76,1.95,3.54c1.3,0.79,3.87,1.8,7.71,3.03l2.26,0.72c3.97,1.24,7.06,2.49,9.25,3.75c2.19,1.27,3.79,2.81,4.78,4.63
			c1,1.82,1.49,4.16,1.49,7.04c0,9.53-6.82,14.29-20.46,14.29C-758.04,2726.86-761.23,2726.64-764.31,2726.19z"/>
		<path class="st3" d="M-707.31,2721.98c-3.12-3.25-4.68-7.97-4.68-14.13v-30.74h11.21v30.74c0,3.63,0.89,6.3,2.67,8.02
			c1.78,1.71,4.53,2.57,8.23,2.57c2.67,0,5.17-0.5,7.5-1.49c2.33-1,4.38-2.38,6.17-4.17v-35.67h11.1v48.73h-10.18l-0.51-5.04
			c-5.14,4.04-11.17,6.06-18.09,6.06C-699.73,2726.86-704.2,2725.23-707.31,2721.98z"/>
		<path class="st3" d="M-637.88,2723.01c-3.29-2.57-4.93-6.25-4.93-11.05c0-4.79,1.63-8.58,4.88-11.36
			c3.26-2.77,8.14-4.16,14.65-4.16h15.63v-2.16c0-2.4-0.36-4.27-1.08-5.6c-0.72-1.34-2.04-2.31-3.96-2.93
			c-1.92-0.61-4.66-0.92-8.22-0.92c-5.76,0-11.14,0.86-16.14,2.57v-8.33c2.33-0.89,5.07-1.61,8.22-2.16
			c3.15-0.55,6.48-0.82,9.97-0.82c7.27,0,12.73,1.47,16.4,4.42c3.67,2.95,5.5,7.61,5.5,13.98v31.35h-9.56l-0.72-4.94
			c-2.06,1.99-4.56,3.48-7.5,4.47c-2.95,0.99-6.55,1.49-10.8,1.49C-630.48,2726.86-634.59,2725.58-637.88,2723.01z M-613.93,2717.2
			c2.53-1.09,4.62-2.64,6.27-4.62v-8.53h-15.42c-3.29,0-5.67,0.62-7.14,1.85c-1.47,1.23-2.21,3.19-2.21,5.86
			c0,2.46,0.82,4.27,2.47,5.39c1.64,1.13,4.11,1.7,7.4,1.7C-619.34,2718.84-616.46,2718.3-613.93,2717.2z"/>
		<path class="st3" d="M-571.68,2723.88c-1.99-1.99-2.98-5.21-2.98-9.66v-57.67h11.21v56.64c0,1.85,0.33,3.13,0.98,3.85
			c0.65,0.72,1.69,1.08,3.13,1.08c1.65,0,3.22-0.2,4.73-0.61v8.12c-2.26,0.83-4.9,1.24-7.91,1.24
			C-566.64,2726.86-569.7,2725.87-571.68,2723.88z"/>
		<path class="st3" d="M-497.23,2723.01c-3.29-2.57-4.93-6.25-4.93-11.05c0-4.79,1.63-8.58,4.88-11.36
			c3.26-2.77,8.14-4.16,14.65-4.16H-467v-2.16c0-2.4-0.36-4.27-1.08-5.6c-0.72-1.34-2.04-2.31-3.96-2.93
			c-1.92-0.61-4.66-0.92-8.22-0.92c-5.76,0-11.14,0.86-16.14,2.57v-8.33c2.33-0.89,5.07-1.61,8.22-2.16s6.48-0.82,9.97-0.82
			c7.27,0,12.73,1.47,16.4,4.42c3.67,2.95,5.5,7.61,5.5,13.98v31.35h-9.56l-0.72-4.94c-2.06,1.99-4.56,3.48-7.5,4.47
			c-2.95,0.99-6.55,1.49-10.8,1.49C-489.82,2726.86-493.94,2725.58-497.23,2723.01z M-473.27,2717.2c2.53-1.09,4.62-2.64,6.27-4.62
			v-8.53h-15.42c-3.29,0-5.67,0.62-7.14,1.85s-2.21,3.19-2.21,5.86c0,2.46,0.82,4.27,2.47,5.39c1.64,1.13,4.11,1.7,7.4,1.7
			C-478.68,2718.84-475.81,2718.3-473.27,2717.2z"/>
		<path class="st3" d="M-434.01,2677.1h10.28l0.61,5.66c2.33-1.51,5.11-2.88,8.33-4.11c3.22-1.23,6.41-2.09,9.56-2.57v8.53
			c-2.95,0.55-6.13,1.39-9.56,2.52c-3.43,1.13-6.1,2.31-8.02,3.55v35.16h-11.21v-48.74H-434.01z"/>
		<path class="st3" d="M-371.82,2722.8c-2.6-2.7-3.91-6.53-3.91-11.46v-25.49h-7.2v-8.74h7.2v-11.2l11.1-3.39v14.6h12.95l-0.72,8.74
			h-12.23v24.88c0,2.81,0.63,4.78,1.9,5.91c1.26,1.13,3.41,1.7,6.42,1.7c1.85,0,3.8-0.34,5.86-1.03v7.91
			c-2.68,1.09-5.93,1.65-9.77,1.65C-365.34,2726.86-369.22,2725.51-371.82,2722.8z"/>
	</g>
</g>
<g>
	<g>
		<g>
			<path class="st3" d="M-973.46,3568.94c0-11.98,9.07-21.05,21.04-21.05c13.27,0,20.72,9.07,20.72,21.05v122.39
				c0,49.54-25.58,87.42-79,87.42c-25.25,0-67.67-11.01-67.67-41.77c0-10.36,6.47-18.45,17.16-18.45
				c15.86,0,17.81,19.75,45.98,19.75c29.79,0,41.77-19.75,41.77-46.95L-973.46,3568.94L-973.46,3568.94z"/>
		</g>
		<g>
			<path class="st3" d="M-910.66,3659.6c0-72.85,42.42-115.26,107.17-115.26c64.76,0,107.49,42.42,107.49,115.26
				c0,73.17-42.74,119.15-107.49,119.15C-868.25,3778.75-910.66,3732.77-910.66,3659.6z M-736.15,3659.6
				c0-45.01-26.87-73.5-67.35-73.5c-40.15,0-66.7,28.49-66.7,73.5c0,45.33,26.55,75.11,66.7,75.11
				C-763.02,3734.71-736.15,3704.93-736.15,3659.6z"/>
		</g>
		<g>
			<path class="st3" d="M-257.02,3772.27c-14.89,0-24.28-7.77-24.28-21.05s9.71-21.04,24.28-21.04h49.22
				c-6.15-33.35-36.59-114.3-54.4-128.87c-20.08,19.75-50.83,102.96-59.58,145.7c-3.88,18.13-9.39,27.52-23.63,27.52
				c-15.54,0-21.37-9.71-21.37-21.05c0-18.13,11.01-54.07,25.9-91.3c18.45-46.62,47.59-114.3,78.35-114.3
				c30.43,0,60.22,67.67,78.35,114.3c14.25,37.23,25.26,72.2,25.26,90.65c0,11.66-5.18,19.43-21.05,19.43h-77.05V3772.27z"/>
		</g>
		<g>
			<path class="st3" d="M-669.01,3561.25c-3.85,0-7.72-1.31-10.9-3.99c-7.14-6.02-8.05-16.69-2.02-23.83
				c7.28-8.63,27.79-29.14,60.88-33.15c40.44-4.89,68.63,18.16,76.3,25.35c6.81,6.39,7.16,17.09,0.77,23.91
				c-6.38,6.81-17.08,7.16-23.91,0.78c-3.53-3.31-22.53-19.67-49.11-16.45c-21.16,2.56-34.38,15.8-39.09,21.38
				C-659.41,3559.21-664.19,3561.25-669.01,3561.25z"/>
		</g>
		<g>
			<path class="st3" d="M-483.18,3561.25c-3.85,0-7.72-1.31-10.89-3.98c-7.14-6.02-8.05-16.69-2.03-23.83
				c7.28-8.63,27.78-29.15,60.88-33.15c40.5-4.9,68.65,18.17,76.31,25.36c6.81,6.39,7.15,17.09,0.76,23.91
				c-6.39,6.8-17.1,7.15-23.91,0.76c-3.53-3.31-22.44-19.65-49.1-16.44c-21.17,2.56-34.38,15.8-39.08,21.37
				C-473.58,3559.21-478.36,3561.25-483.18,3561.25z"/>
		</g>
		<g>
			<path class="st3" d="M-612.65,3751.63c-9.34,0-16.91-7.57-16.91-16.91V3586.1c0-9.34,7.57-16.91,16.91-16.91
				c9.34,0,16.91,7.57,16.91,16.91v148.61C-595.74,3744.05-603.32,3751.63-612.65,3751.63z"/>
		</g>
		<g>
			<path class="st3" d="M-426.82,3751.63c-9.34,0-16.91-7.57-16.91-16.91V3586.1c0-9.34,7.57-16.91,16.91-16.91
				s16.91,7.57,16.91,16.91v148.61C-409.91,3744.05-417.49,3751.63-426.82,3751.63z"/>
		</g>
	</g>
	<g>
		<path class="st3" d="M-886.84,3835.23h11.62l13.68,37.83l13.67-37.83h11.51l-19.12,48.73h-12.13L-886.84,3835.23z"/>
		<path class="st3" d="M-806.66,3843.76h-7.4l1.03-8.53h17.58v48.73h-11.2v-40.2H-806.66z M-807.58,3815.8h12.23v9.25h-12.23V3815.8
			z"/>
		<path class="st3" d="M-764.31,3884.32c-3.08-0.44-5.62-1.04-7.61-1.8v-9.46c2.27,0.89,4.78,1.58,7.56,2.06
			c2.78,0.48,5.5,0.72,8.17,0.72c3.97,0,6.75-0.34,8.33-1.03c1.58-0.68,2.36-2.02,2.36-4.01c0-1.78-0.72-3.1-2.16-3.96
			c-1.44-0.85-4.15-1.9-8.12-3.13l-3.08-1.03c-4.94-1.65-8.53-3.48-10.79-5.5c-2.27-2.02-3.39-5.02-3.39-8.99
			c0-4.59,1.64-8.07,4.93-10.43s8.43-3.54,15.42-3.54c2.67,0,5.29,0.2,7.86,0.61c2.57,0.41,4.78,0.93,6.63,1.54v9.35
			c-1.85-0.75-3.92-1.34-6.22-1.75s-4.47-0.62-6.53-0.62c-3.77,0-6.51,0.33-8.22,0.98c-1.72,0.65-2.57,1.87-2.57,3.65
			c0,1.58,0.65,2.76,1.95,3.54c1.3,0.79,3.87,1.8,7.71,3.03l2.26,0.72c3.97,1.24,7.06,2.49,9.25,3.75c2.19,1.27,3.79,2.81,4.78,4.63
			c1,1.82,1.49,4.16,1.49,7.04c0,9.53-6.82,14.29-20.46,14.29C-758.04,3884.99-761.23,3884.77-764.31,3884.32z"/>
		<path class="st3" d="M-707.31,3880.11c-3.12-3.25-4.68-7.97-4.68-14.13v-30.74h11.21v30.74c0,3.63,0.89,6.31,2.67,8.02
			c1.78,1.71,4.53,2.57,8.23,2.57c2.67,0,5.17-0.5,7.5-1.49c2.33-1,4.38-2.38,6.17-4.17v-35.67h11.1v48.73h-10.18l-0.51-5.04
			c-5.14,4.04-11.17,6.06-18.09,6.06C-699.73,3884.99-704.2,3883.36-707.31,3880.11z"/>
		<path class="st3" d="M-637.88,3881.13c-3.29-2.57-4.93-6.25-4.93-11.05c0-4.79,1.63-8.58,4.88-11.36
			c3.26-2.77,8.14-4.16,14.65-4.16h15.63v-2.16c0-2.4-0.36-4.27-1.08-5.6c-0.72-1.34-2.04-2.31-3.96-2.93
			c-1.92-0.61-4.66-0.93-8.22-0.93c-5.76,0-11.14,0.86-16.14,2.57v-8.33c2.33-0.89,5.07-1.61,8.22-2.16
			c3.15-0.55,6.48-0.82,9.97-0.82c7.27,0,12.73,1.47,16.4,4.42c3.67,2.95,5.5,7.61,5.5,13.98v31.35h-9.56l-0.72-4.94
			c-2.06,1.99-4.56,3.48-7.5,4.47c-2.95,0.99-6.55,1.49-10.8,1.49C-630.48,3884.99-634.59,3883.71-637.88,3881.13z M-613.93,3875.33
			c2.53-1.09,4.62-2.64,6.27-4.62v-8.53h-15.42c-3.29,0-5.67,0.62-7.14,1.85c-1.47,1.23-2.21,3.19-2.21,5.86
			c0,2.46,0.82,4.27,2.47,5.39c1.64,1.13,4.11,1.7,7.4,1.7C-619.34,3876.97-616.46,3876.43-613.93,3875.33z"/>
		<path class="st3" d="M-571.68,3882.01c-1.99-1.99-2.98-5.21-2.98-9.66v-57.67h11.21v56.64c0,1.85,0.33,3.13,0.98,3.85
			c0.65,0.72,1.69,1.08,3.13,1.08c1.65,0,3.22-0.2,4.73-0.61v8.12c-2.26,0.83-4.9,1.24-7.91,1.24
			C-566.64,3884.99-569.7,3883.99-571.68,3882.01z"/>
		<path class="st3" d="M-497.23,3881.13c-3.29-2.57-4.93-6.25-4.93-11.05c0-4.79,1.63-8.58,4.88-11.36
			c3.26-2.77,8.14-4.16,14.65-4.16H-467v-2.16c0-2.4-0.36-4.27-1.08-5.6c-0.72-1.34-2.04-2.31-3.96-2.93
			c-1.92-0.61-4.66-0.93-8.22-0.93c-5.76,0-11.14,0.86-16.14,2.57v-8.33c2.33-0.89,5.07-1.61,8.22-2.16
			c3.15-0.55,6.48-0.82,9.97-0.82c7.27,0,12.73,1.47,16.4,4.42c3.67,2.95,5.5,7.61,5.5,13.98v31.35h-9.56l-0.72-4.94
			c-2.06,1.99-4.56,3.48-7.5,4.47c-2.95,0.99-6.55,1.49-10.8,1.49C-489.82,3884.99-493.94,3883.71-497.23,3881.13z M-473.27,3875.33
			c2.53-1.09,4.62-2.64,6.27-4.62v-8.53h-15.42c-3.29,0-5.67,0.62-7.14,1.85s-2.21,3.19-2.21,5.86c0,2.46,0.82,4.27,2.47,5.39
			c1.64,1.13,4.11,1.7,7.4,1.7C-478.68,3876.97-475.81,3876.43-473.27,3875.33z"/>
		<path class="st3" d="M-434.01,3835.23h10.28l0.61,5.66c2.33-1.51,5.11-2.88,8.33-4.12c3.22-1.23,6.41-2.09,9.56-2.57v8.53
			c-2.95,0.55-6.13,1.39-9.56,2.52s-6.1,2.31-8.02,3.55v35.16h-11.21v-48.73H-434.01z"/>
		<path class="st3" d="M-371.82,3880.93c-2.6-2.7-3.91-6.53-3.91-11.46v-25.49h-7.2v-8.74h7.2v-11.2l11.1-3.39v14.6h12.95
			l-0.72,8.74h-12.23v24.88c0,2.81,0.63,4.78,1.9,5.91c1.26,1.13,3.41,1.7,6.42,1.7c1.85,0,3.8-0.34,5.86-1.03v7.91
			c-2.68,1.1-5.93,1.65-9.77,1.65C-365.34,3884.99-369.22,3883.64-371.82,3880.93z"/>
	</g>
</g>
<g>
	<g>
		<g>
			<path class="st2" d="M191.74,1262.9c0-11.98,9.07-21.05,21.04-21.05c13.27,0,20.72,9.07,20.72,21.05v122.39
				c0,49.54-25.58,87.42-79,87.42c-25.25,0-67.67-11.01-67.67-41.77c0-10.36,6.47-18.45,17.16-18.45
				c15.86,0,17.81,19.75,45.98,19.75c29.79,0,41.77-19.75,41.77-46.95V1262.9z"/>
		</g>
		<g>
			<path class="st2" d="M254.53,1353.56c0-72.85,42.42-115.26,107.17-115.26c64.76,0,107.49,42.42,107.49,115.26
				c0,73.17-42.74,119.15-107.49,119.15C296.95,1472.71,254.53,1426.73,254.53,1353.56z M429.05,1353.56
				c0-45.01-26.87-73.5-67.35-73.5c-40.15,0-66.7,28.49-66.7,73.5c0,45.33,26.55,75.11,66.7,75.11
				C402.18,1428.67,429.05,1398.88,429.05,1353.56z"/>
		</g>
		<g>
			<path class="st2" d="M908.17,1466.23c-14.89,0-24.28-7.77-24.28-21.05s9.71-21.04,24.28-21.04h49.22
				c-6.15-33.35-36.59-114.3-54.4-128.87c-20.08,19.75-50.83,102.96-59.58,145.7c-3.88,18.13-9.39,27.52-23.63,27.52
				c-15.54,0-21.37-9.71-21.37-21.05c0-18.13,11.01-54.07,25.9-91.3c18.45-46.62,47.59-114.3,78.35-114.3
				c30.43,0,60.22,67.67,78.35,114.3c14.25,37.23,25.26,72.2,25.26,90.65c0,11.66-5.18,19.43-21.05,19.43h-77.05V1466.23z"/>
		</g>
		<g>
			<path class="st2" d="M496.19,1255.21c-3.85,0-7.72-1.31-10.9-3.99c-7.14-6.02-8.05-16.69-2.02-23.83
				c7.28-8.63,27.79-29.14,60.88-33.15c40.44-4.89,68.63,18.16,76.3,25.35c6.81,6.39,7.16,17.09,0.77,23.91
				c-6.39,6.81-17.08,7.16-23.91,0.78c-3.53-3.31-22.53-19.67-49.11-16.45c-21.16,2.56-34.38,15.8-39.09,21.38
				C505.78,1253.16,501,1255.21,496.19,1255.21z"/>
		</g>
		<g>
			<path class="st2" d="M682.02,1255.21c-3.85,0-7.72-1.31-10.89-3.98c-7.14-6.02-8.05-16.69-2.03-23.83
				c7.28-8.63,27.78-29.15,60.88-33.15c40.5-4.9,68.65,18.17,76.31,25.36c6.81,6.39,7.15,17.1,0.76,23.91
				c-6.39,6.8-17.1,7.15-23.91,0.76c-3.53-3.31-22.44-19.65-49.1-16.44c-21.17,2.56-34.38,15.8-39.08,21.37
				C691.61,1253.16,686.83,1255.21,682.02,1255.21z"/>
		</g>
		<g>
			<path class="st2" d="M552.54,1445.59c-9.34,0-16.91-7.57-16.91-16.91v-148.61c0-9.34,7.57-16.91,16.91-16.91
				c9.34,0,16.91,7.57,16.91,16.91v148.61C569.45,1438.01,561.88,1445.59,552.54,1445.59z"/>
		</g>
		<g>
			<path class="st2" d="M738.37,1445.59c-9.34,0-16.91-7.57-16.91-16.91v-148.61c0-9.34,7.57-16.91,16.91-16.91
				c9.34,0,16.91,7.57,16.91,16.91v148.61C755.28,1438.01,747.71,1445.59,738.37,1445.59z"/>
		</g>
	</g>
	<g>
		<path class="st2" d="M278.35,1529.19h11.62l13.68,37.83l13.67-37.83h11.51l-19.12,48.73h-12.13L278.35,1529.19z"/>
		<path class="st2" d="M358.54,1537.72h-7.4l1.03-8.53h17.58v48.73h-11.2L358.54,1537.72L358.54,1537.72z M357.61,1509.76h12.23
			v9.25h-12.23V1509.76z"/>
		<path class="st2" d="M400.88,1578.28c-3.08-0.44-5.62-1.04-7.61-1.8v-9.46c2.27,0.89,4.78,1.58,7.56,2.06
			c2.78,0.48,5.5,0.72,8.17,0.72c3.97,0,6.75-0.34,8.33-1.03c1.58-0.68,2.36-2.02,2.36-4.01c0-1.78-0.72-3.1-2.16-3.96
			c-1.44-0.85-4.15-1.9-8.12-3.13l-3.08-1.03c-4.94-1.65-8.53-3.48-10.79-5.5c-2.27-2.02-3.39-5.02-3.39-8.99
			c0-4.59,1.64-8.07,4.93-10.43c3.29-2.36,8.43-3.54,15.42-3.54c2.67,0,5.29,0.2,7.86,0.61c2.57,0.41,4.78,0.92,6.63,1.54v9.35
			c-1.85-0.75-3.92-1.34-6.22-1.75s-4.47-0.62-6.53-0.62c-3.77,0-6.51,0.33-8.22,0.98c-1.72,0.65-2.57,1.87-2.57,3.65
			c0,1.58,0.65,2.76,1.95,3.54c1.3,0.79,3.87,1.8,7.71,3.03l2.26,0.72c3.97,1.24,7.06,2.49,9.25,3.75c2.19,1.27,3.79,2.81,4.78,4.63
			c1,1.82,1.49,4.16,1.49,7.04c0,9.53-6.82,14.29-20.46,14.29C407.15,1578.95,403.97,1578.73,400.88,1578.28z"/>
		<path class="st2" d="M457.88,1574.06c-3.12-3.25-4.68-7.97-4.68-14.13v-30.74h11.21v30.74c0,3.63,0.89,6.3,2.67,8.02
			c1.78,1.71,4.53,2.57,8.23,2.57c2.67,0,5.17-0.5,7.5-1.49c2.33-1,4.38-2.38,6.17-4.17v-35.67h11.1v48.73H489.9l-0.51-5.04
			c-5.14,4.04-11.17,6.06-18.09,6.06C465.47,1578.95,461,1577.32,457.88,1574.06z"/>
		<path class="st2" d="M527.31,1575.09c-3.29-2.57-4.93-6.25-4.93-11.05c0-4.79,1.63-8.58,4.88-11.36
			c3.26-2.77,8.14-4.16,14.65-4.16h15.62v-2.16c0-2.4-0.36-4.27-1.08-5.6c-0.72-1.34-2.04-2.31-3.96-2.93
			c-1.92-0.61-4.66-0.92-8.22-0.92c-5.76,0-11.14,0.86-16.14,2.57v-8.33c2.33-0.89,5.07-1.61,8.22-2.16
			c3.15-0.55,6.48-0.82,9.97-0.82c7.27,0,12.73,1.47,16.4,4.42c3.67,2.95,5.5,7.61,5.5,13.98v31.35h-9.56l-0.72-4.94
			c-2.06,1.99-4.56,3.48-7.5,4.47c-2.95,0.99-6.55,1.49-10.8,1.49C534.72,1578.95,530.6,1577.66,527.31,1575.09z M551.27,1569.28
			c2.53-1.09,4.62-2.64,6.27-4.62v-8.53h-15.42c-3.29,0-5.67,0.62-7.14,1.85c-1.47,1.23-2.21,3.19-2.21,5.86
			c0,2.46,0.82,4.27,2.47,5.39c1.64,1.13,4.11,1.7,7.4,1.7C545.85,1570.93,548.73,1570.38,551.27,1569.28z"/>
		<path class="st2" d="M593.51,1575.97c-1.99-1.99-2.98-5.21-2.98-9.66v-57.67h11.21v56.64c0,1.85,0.33,3.13,0.98,3.85
			c0.65,0.72,1.69,1.08,3.13,1.08c1.65,0,3.22-0.2,4.73-0.61v8.12c-2.26,0.83-4.9,1.24-7.91,1.24
			C598.55,1578.95,595.5,1577.95,593.51,1575.97z"/>
		<path class="st2" d="M667.97,1575.09c-3.29-2.57-4.93-6.25-4.93-11.05c0-4.79,1.63-8.58,4.88-11.36
			c3.26-2.77,8.14-4.16,14.65-4.16h15.63v-2.16c0-2.4-0.36-4.27-1.08-5.6c-0.72-1.34-2.04-2.31-3.96-2.93
			c-1.92-0.61-4.66-0.92-8.22-0.92c-5.76,0-11.14,0.86-16.14,2.57v-8.33c2.33-0.89,5.07-1.61,8.22-2.16
			c3.15-0.55,6.48-0.82,9.97-0.82c7.27,0,12.73,1.47,16.4,4.42c3.67,2.95,5.5,7.61,5.5,13.98v31.35h-9.56l-0.72-4.94
			c-2.06,1.99-4.56,3.48-7.5,4.47c-2.95,0.99-6.55,1.49-10.8,1.49C675.37,1578.95,671.26,1577.66,667.97,1575.09z M691.92,1569.28
			c2.53-1.09,4.62-2.64,6.27-4.62v-8.53h-15.42c-3.29,0-5.67,0.62-7.14,1.85s-2.21,3.19-2.21,5.86c0,2.46,0.82,4.27,2.47,5.39
			c1.64,1.13,4.11,1.7,7.4,1.7C686.51,1570.93,689.39,1570.38,691.92,1569.28z"/>
		<path class="st2" d="M731.18,1529.19h10.28l0.61,5.66c2.33-1.51,5.11-2.88,8.33-4.12c3.22-1.23,6.41-2.09,9.56-2.57v8.53
			c-2.95,0.55-6.13,1.39-9.56,2.52s-6.1,2.31-8.02,3.55v35.16h-11.21v-48.73H731.18z"/>
		<path class="st2" d="M793.38,1574.88c-2.6-2.7-3.91-6.53-3.91-11.46v-25.49h-7.2v-8.74h7.2v-11.2l11.1-3.39v14.6h12.95l-0.72,8.74
			h-12.23v24.88c0,2.81,0.63,4.78,1.9,5.91c1.26,1.13,3.41,1.7,6.42,1.7c1.85,0,3.8-0.34,5.86-1.03v7.91
			c-2.68,1.09-5.93,1.65-9.77,1.65C799.85,1578.95,795.98,1577.59,793.38,1574.88z"/>
	</g>
</g>
<g>
	<g>
		<g>
			<path class="st0" d="M191.74,2410.81c0-11.98,9.07-21.05,21.04-21.05c13.27,0,20.72,9.07,20.72,21.05v122.39
				c0,49.54-25.58,87.42-79,87.42c-25.25,0-67.67-11.01-67.67-41.77c0-10.36,6.47-18.45,17.16-18.45
				c15.86,0,17.81,19.75,45.98,19.75c29.79,0,41.77-19.75,41.77-46.95V2410.81z"/>
		</g>
		<g>
			<path class="st0" d="M254.53,2501.47c0-72.85,42.42-115.26,107.17-115.26c64.76,0,107.49,42.42,107.49,115.26
				c0,73.17-42.74,119.15-107.49,119.15C296.95,2620.62,254.53,2574.64,254.53,2501.47z M429.05,2501.47
				c0-45.01-26.87-73.5-67.35-73.5c-40.15,0-66.7,28.49-66.7,73.5c0,45.33,26.55,75.11,66.7,75.11
				C402.18,2576.59,429.05,2546.8,429.05,2501.47z"/>
		</g>
		<g>
			<path class="st0" d="M908.17,2614.15c-14.89,0-24.28-7.77-24.28-21.05s9.71-21.04,24.28-21.04h49.22
				c-6.15-33.35-36.59-114.3-54.4-128.87c-20.08,19.75-50.83,102.96-59.58,145.7c-3.88,18.13-9.39,27.52-23.63,27.52
				c-15.54,0-21.37-9.71-21.37-21.05c0-18.13,11.01-54.07,25.9-91.3c18.45-46.62,47.59-114.3,78.35-114.3
				c30.43,0,60.22,67.67,78.35,114.3c14.25,37.23,25.26,72.2,25.26,90.65c0,11.66-5.18,19.43-21.05,19.43h-77.05V2614.15z"/>
		</g>
		<g>
			<path class="st0" d="M496.19,2403.12c-3.85,0-7.72-1.31-10.9-3.99c-7.14-6.02-8.05-16.69-2.02-23.83
				c7.28-8.63,27.79-29.14,60.88-33.15c40.44-4.89,68.63,18.16,76.3,25.35c6.81,6.39,7.16,17.09,0.77,23.91
				c-6.39,6.81-17.08,7.16-23.91,0.78c-3.53-3.31-22.53-19.67-49.11-16.45c-21.16,2.56-34.38,15.8-39.09,21.38
				C505.78,2401.08,501,2403.12,496.19,2403.12z"/>
		</g>
		<g>
			<path class="st0" d="M682.02,2403.12c-3.85,0-7.72-1.31-10.89-3.98c-7.14-6.02-8.05-16.69-2.03-23.83
				c7.28-8.63,27.78-29.15,60.88-33.15c40.5-4.9,68.65,18.17,76.31,25.36c6.81,6.39,7.15,17.09,0.76,23.91
				c-6.39,6.8-17.1,7.15-23.91,0.76c-3.53-3.31-22.44-19.65-49.1-16.44c-21.17,2.56-34.38,15.8-39.08,21.37
				C691.61,2401.08,686.83,2403.12,682.02,2403.12z"/>
		</g>
		<g>
			<path class="st0" d="M552.54,2593.5c-9.34,0-16.91-7.57-16.91-16.91v-148.61c0-9.34,7.57-16.91,16.91-16.91
				c9.34,0,16.91,7.57,16.91,16.91v148.61C569.45,2585.93,561.88,2593.5,552.54,2593.5z"/>
		</g>
		<g>
			<path class="st0" d="M738.37,2593.5c-9.34,0-16.91-7.57-16.91-16.91v-148.61c0-9.34,7.57-16.91,16.91-16.91
				c9.34,0,16.91,7.57,16.91,16.91v148.61C755.28,2585.93,747.71,2593.5,738.37,2593.5z"/>
		</g>
	</g>
	<g>
		<path class="st0" d="M278.35,2677.1h11.62l13.68,37.83l13.67-37.83h11.51l-19.12,48.73h-12.13L278.35,2677.1z"/>
		<path class="st0" d="M358.54,2685.64h-7.4l1.03-8.53h17.58v48.73h-11.2L358.54,2685.64L358.54,2685.64z M357.61,2657.68h12.23
			v9.25h-12.23V2657.68z"/>
		<path class="st0" d="M400.88,2726.19c-3.08-0.44-5.62-1.04-7.61-1.8v-9.46c2.27,0.89,4.78,1.58,7.56,2.06s5.5,0.72,8.17,0.72
			c3.97,0,6.75-0.34,8.33-1.03c1.58-0.68,2.36-2.02,2.36-4.01c0-1.78-0.72-3.1-2.16-3.96c-1.44-0.85-4.15-1.9-8.12-3.13l-3.08-1.03
			c-4.94-1.65-8.53-3.48-10.79-5.5c-2.27-2.02-3.39-5.02-3.39-8.99c0-4.59,1.64-8.07,4.93-10.43c3.29-2.36,8.43-3.54,15.42-3.54
			c2.67,0,5.29,0.2,7.86,0.61c2.57,0.41,4.78,0.92,6.63,1.54v9.35c-1.85-0.75-3.92-1.34-6.22-1.75s-4.47-0.62-6.53-0.62
			c-3.77,0-6.51,0.33-8.22,0.98c-1.72,0.65-2.57,1.87-2.57,3.65c0,1.58,0.65,2.76,1.95,3.54c1.3,0.79,3.87,1.8,7.71,3.03l2.26,0.72
			c3.97,1.24,7.06,2.49,9.25,3.75c2.19,1.27,3.79,2.81,4.78,4.63c1,1.82,1.49,4.16,1.49,7.04c0,9.53-6.82,14.29-20.46,14.29
			C407.15,2726.86,403.97,2726.64,400.88,2726.19z"/>
		<path class="st0" d="M457.88,2721.98c-3.12-3.25-4.68-7.97-4.68-14.13v-30.74h11.21v30.74c0,3.63,0.89,6.3,2.67,8.02
			c1.78,1.71,4.53,2.57,8.23,2.57c2.67,0,5.17-0.5,7.5-1.49c2.33-1,4.38-2.38,6.17-4.17v-35.67h11.1v48.73H489.9l-0.51-5.04
			c-5.14,4.04-11.17,6.06-18.09,6.06C465.47,2726.86,461,2725.23,457.88,2721.98z"/>
		<path class="st0" d="M527.31,2723.01c-3.29-2.57-4.93-6.25-4.93-11.05c0-4.79,1.63-8.58,4.88-11.36
			c3.26-2.77,8.14-4.16,14.65-4.16h15.62v-2.16c0-2.4-0.36-4.27-1.08-5.6c-0.72-1.34-2.04-2.31-3.96-2.93
			c-1.92-0.61-4.66-0.92-8.22-0.92c-5.76,0-11.14,0.86-16.14,2.57v-8.33c2.33-0.89,5.07-1.61,8.22-2.16s6.48-0.82,9.97-0.82
			c7.27,0,12.73,1.47,16.4,4.42c3.67,2.95,5.5,7.61,5.5,13.98v31.35h-9.56l-0.72-4.94c-2.06,1.99-4.56,3.48-7.5,4.47
			c-2.95,0.99-6.55,1.49-10.8,1.49C534.72,2726.86,530.6,2725.58,527.31,2723.01z M551.27,2717.2c2.53-1.09,4.62-2.64,6.27-4.62
			v-8.53h-15.42c-3.29,0-5.67,0.62-7.14,1.85c-1.47,1.23-2.21,3.19-2.21,5.86c0,2.46,0.82,4.27,2.47,5.39
			c1.64,1.13,4.11,1.7,7.4,1.7C545.85,2718.84,548.73,2718.3,551.27,2717.2z"/>
		<path class="st0" d="M593.51,2723.88c-1.99-1.99-2.98-5.21-2.98-9.66v-57.67h11.21v56.64c0,1.85,0.33,3.13,0.98,3.85
			c0.65,0.72,1.69,1.08,3.13,1.08c1.65,0,3.22-0.2,4.73-0.61v8.12c-2.26,0.83-4.9,1.24-7.91,1.24
			C598.55,2726.86,595.5,2725.87,593.51,2723.88z"/>
		<path class="st0" d="M667.97,2723.01c-3.29-2.57-4.93-6.25-4.93-11.05c0-4.79,1.63-8.58,4.88-11.36
			c3.26-2.77,8.14-4.16,14.65-4.16h15.63v-2.16c0-2.4-0.36-4.27-1.08-5.6c-0.72-1.34-2.04-2.31-3.96-2.93
			c-1.92-0.61-4.66-0.92-8.22-0.92c-5.76,0-11.14,0.86-16.14,2.57v-8.33c2.33-0.89,5.07-1.61,8.22-2.16
			c3.15-0.55,6.48-0.82,9.97-0.82c7.27,0,12.73,1.47,16.4,4.42c3.67,2.95,5.5,7.61,5.5,13.98v31.35h-9.56l-0.72-4.94
			c-2.06,1.99-4.56,3.48-7.5,4.47c-2.95,0.99-6.55,1.49-10.8,1.49C675.37,2726.86,671.26,2725.58,667.97,2723.01z M691.92,2717.2
			c2.53-1.09,4.62-2.64,6.27-4.62v-8.53h-15.42c-3.29,0-5.67,0.62-7.14,1.85c-1.47,1.23-2.21,3.19-2.21,5.86
			c0,2.46,0.82,4.27,2.47,5.39c1.64,1.13,4.11,1.7,7.4,1.7C686.51,2718.84,689.39,2718.3,691.92,2717.2z"/>
		<path class="st0" d="M731.18,2677.1h10.28l0.61,5.66c2.33-1.51,5.11-2.88,8.33-4.11c3.22-1.23,6.41-2.09,9.56-2.57v8.53
			c-2.95,0.55-6.13,1.39-9.56,2.52c-3.43,1.13-6.1,2.31-8.02,3.55v35.16h-11.21v-48.74H731.18z"/>
		<path class="st0" d="M793.38,2722.8c-2.6-2.7-3.91-6.53-3.91-11.46v-25.49h-7.2v-8.74h7.2v-11.2l11.1-3.39v14.6h12.95l-0.72,8.74
			h-12.23v24.88c0,2.81,0.63,4.78,1.9,5.91c1.26,1.13,3.41,1.7,6.42,1.7c1.85,0,3.8-0.34,5.86-1.03v7.91
			c-2.68,1.09-5.93,1.65-9.77,1.65C799.85,2726.86,795.98,2725.51,793.38,2722.8z"/>
	</g>
</g>
<g>
	<g>
		<g>
			<path class="st1" d="M191.74,3568.94c0-11.98,9.07-21.05,21.04-21.05c13.27,0,20.72,9.07,20.72,21.05v122.39
				c0,49.54-25.58,87.42-79,87.42c-25.25,0-67.67-11.01-67.67-41.77c0-10.36,6.47-18.45,17.16-18.45
				c15.86,0,17.81,19.75,45.98,19.75c29.79,0,41.77-19.75,41.77-46.95V3568.94z"/>
		</g>
		<g>
			<path class="st1" d="M254.53,3659.6c0-72.85,42.42-115.26,107.17-115.26c64.76,0,107.49,42.42,107.49,115.26
				c0,73.17-42.74,119.15-107.49,119.15S254.53,3732.77,254.53,3659.6z M429.05,3659.6c0-45.01-26.87-73.5-67.35-73.5
				c-40.15,0-66.7,28.49-66.7,73.5c0,45.33,26.55,75.11,66.7,75.11C402.18,3734.71,429.05,3704.93,429.05,3659.6z"/>
		</g>
		<g>
			<path class="st1" d="M908.17,3772.27c-14.89,0-24.28-7.77-24.28-21.05s9.71-21.04,24.28-21.04h49.22
				c-6.15-33.35-36.59-114.3-54.4-128.87c-20.08,19.75-50.83,102.96-59.58,145.7c-3.88,18.13-9.39,27.52-23.63,27.52
				c-15.54,0-21.37-9.71-21.37-21.05c0-18.13,11.01-54.07,25.9-91.3c18.45-46.62,47.59-114.3,78.35-114.3
				c30.43,0,60.22,67.67,78.35,114.3c14.25,37.23,25.26,72.2,25.26,90.65c0,11.66-5.18,19.43-21.05,19.43h-77.05V3772.27z"/>
		</g>
		<g>
			<path class="st1" d="M496.19,3561.25c-3.85,0-7.72-1.31-10.9-3.99c-7.14-6.02-8.05-16.69-2.02-23.83
				c7.28-8.63,27.79-29.14,60.88-33.15c40.44-4.89,68.63,18.16,76.3,25.35c6.81,6.39,7.16,17.09,0.77,23.91
				c-6.39,6.81-17.08,7.16-23.91,0.78c-3.53-3.31-22.53-19.67-49.11-16.45c-21.16,2.56-34.38,15.8-39.09,21.38
				C505.78,3559.21,501,3561.25,496.19,3561.25z"/>
		</g>
		<g>
			<path class="st1" d="M682.02,3561.25c-3.85,0-7.72-1.31-10.89-3.98c-7.14-6.02-8.05-16.69-2.03-23.83
				c7.28-8.63,27.78-29.15,60.88-33.15c40.5-4.9,68.65,18.17,76.31,25.36c6.81,6.39,7.15,17.09,0.76,23.91
				c-6.39,6.8-17.1,7.15-23.91,0.76c-3.53-3.31-22.44-19.65-49.1-16.44c-21.17,2.56-34.38,15.8-39.08,21.37
				C691.61,3559.21,686.83,3561.25,682.02,3561.25z"/>
		</g>
		<g>
			<path class="st1" d="M552.54,3751.63c-9.34,0-16.91-7.57-16.91-16.91V3586.1c0-9.34,7.57-16.91,16.91-16.91
				c9.34,0,16.91,7.57,16.91,16.91v148.61C569.45,3744.05,561.88,3751.63,552.54,3751.63z"/>
		</g>
		<g>
			<path class="st1" d="M738.37,3751.63c-9.34,0-16.91-7.57-16.91-16.91V3586.1c0-9.34,7.57-16.91,16.91-16.91
				c9.34,0,16.91,7.57,16.91,16.91v148.61C755.28,3744.05,747.71,3751.63,738.37,3751.63z"/>
		</g>
	</g>
	<g>
		<path class="st1" d="M278.35,3835.23h11.62l13.68,37.83l13.67-37.83h11.51l-19.12,48.73h-12.13L278.35,3835.23z"/>
		<path class="st1" d="M358.54,3843.76h-7.4l1.03-8.53h17.58v48.73h-11.2L358.54,3843.76L358.54,3843.76z M357.61,3815.8h12.23v9.25
			h-12.23V3815.8z"/>
		<path class="st1" d="M400.88,3884.32c-3.08-0.44-5.62-1.04-7.61-1.8v-9.46c2.27,0.89,4.78,1.58,7.56,2.06s5.5,0.72,8.17,0.72
			c3.97,0,6.75-0.34,8.33-1.03c1.58-0.68,2.36-2.02,2.36-4.01c0-1.78-0.72-3.1-2.16-3.96c-1.44-0.85-4.15-1.9-8.12-3.13l-3.08-1.03
			c-4.94-1.65-8.53-3.48-10.79-5.5c-2.27-2.02-3.39-5.02-3.39-8.99c0-4.59,1.64-8.07,4.93-10.43c3.29-2.36,8.43-3.54,15.42-3.54
			c2.67,0,5.29,0.2,7.86,0.61c2.57,0.41,4.78,0.93,6.63,1.54v9.35c-1.85-0.75-3.92-1.34-6.22-1.75s-4.47-0.62-6.53-0.62
			c-3.77,0-6.51,0.33-8.22,0.98c-1.72,0.65-2.57,1.87-2.57,3.65c0,1.58,0.65,2.76,1.95,3.54c1.3,0.79,3.87,1.8,7.71,3.03l2.26,0.72
			c3.97,1.24,7.06,2.49,9.25,3.75c2.19,1.27,3.79,2.81,4.78,4.63c1,1.82,1.49,4.16,1.49,7.04c0,9.53-6.82,14.29-20.46,14.29
			C407.15,3884.99,403.97,3884.77,400.88,3884.32z"/>
		<path class="st1" d="M457.88,3880.11c-3.12-3.25-4.68-7.97-4.68-14.13v-30.74h11.21v30.74c0,3.63,0.89,6.31,2.67,8.02
			s4.53,2.57,8.23,2.57c2.67,0,5.17-0.5,7.5-1.49c2.33-1,4.38-2.38,6.17-4.17v-35.67h11.1v48.73H489.9l-0.51-5.04
			c-5.14,4.04-11.17,6.06-18.09,6.06C465.47,3884.99,461,3883.36,457.88,3880.11z"/>
		<path class="st1" d="M527.31,3881.13c-3.29-2.57-4.93-6.25-4.93-11.05c0-4.79,1.63-8.58,4.88-11.36
			c3.26-2.77,8.14-4.16,14.65-4.16h15.62v-2.16c0-2.4-0.36-4.27-1.08-5.6c-0.72-1.34-2.04-2.31-3.96-2.93
			c-1.92-0.61-4.66-0.93-8.22-0.93c-5.76,0-11.14,0.86-16.14,2.57v-8.33c2.33-0.89,5.07-1.61,8.22-2.16
			c3.15-0.55,6.48-0.82,9.97-0.82c7.27,0,12.73,1.47,16.4,4.42c3.67,2.95,5.5,7.61,5.5,13.98v31.35h-9.56l-0.72-4.94
			c-2.06,1.99-4.56,3.48-7.5,4.47c-2.95,0.99-6.55,1.49-10.8,1.49C534.72,3884.99,530.6,3883.71,527.31,3881.13z M551.27,3875.33
			c2.53-1.09,4.62-2.64,6.27-4.62v-8.53h-15.42c-3.29,0-5.67,0.62-7.14,1.85c-1.47,1.23-2.21,3.19-2.21,5.86
			c0,2.46,0.82,4.27,2.47,5.39c1.64,1.13,4.11,1.7,7.4,1.7C545.85,3876.97,548.73,3876.43,551.27,3875.33z"/>
		<path class="st1" d="M593.51,3882.01c-1.99-1.99-2.98-5.21-2.98-9.66v-57.67h11.21v56.64c0,1.85,0.33,3.13,0.98,3.85
			c0.65,0.72,1.69,1.08,3.13,1.08c1.65,0,3.22-0.2,4.73-0.61v8.12c-2.26,0.83-4.9,1.24-7.91,1.24
			C598.55,3884.99,595.5,3883.99,593.51,3882.01z"/>
		<path class="st1" d="M667.97,3881.13c-3.29-2.57-4.93-6.25-4.93-11.05c0-4.79,1.63-8.58,4.88-11.36
			c3.26-2.77,8.14-4.16,14.65-4.16h15.63v-2.16c0-2.4-0.36-4.27-1.08-5.6c-0.72-1.34-2.04-2.31-3.96-2.93
			c-1.92-0.61-4.66-0.93-8.22-0.93c-5.76,0-11.14,0.86-16.14,2.57v-8.33c2.33-0.89,5.07-1.61,8.22-2.16
			c3.15-0.55,6.48-0.82,9.97-0.82c7.27,0,12.73,1.47,16.4,4.42c3.67,2.95,5.5,7.61,5.5,13.98v31.35h-9.56l-0.72-4.94
			c-2.06,1.99-4.56,3.48-7.5,4.47c-2.95,0.99-6.55,1.49-10.8,1.49C675.37,3884.99,671.26,3883.71,667.97,3881.13z M691.92,3875.33
			c2.53-1.09,4.62-2.64,6.27-4.62v-8.53h-15.42c-3.29,0-5.67,0.62-7.14,1.85c-1.47,1.23-2.21,3.19-2.21,5.86
			c0,2.46,0.82,4.27,2.47,5.39c1.64,1.13,4.11,1.7,7.4,1.7C686.51,3876.97,689.39,3876.43,691.92,3875.33z"/>
		<path class="st1" d="M731.18,3835.23h10.28l0.61,5.66c2.33-1.51,5.11-2.88,8.33-4.12c3.22-1.23,6.41-2.09,9.56-2.57v8.53
			c-2.95,0.55-6.13,1.39-9.56,2.52s-6.1,2.31-8.02,3.55v35.16h-11.21v-48.73H731.18z"/>
		<path class="st1" d="M793.38,3880.93c-2.6-2.7-3.91-6.53-3.91-11.46v-25.49h-7.2v-8.74h7.2v-11.2l11.1-3.39v14.6h12.95l-0.72,8.74
			h-12.23v24.88c0,2.81,0.63,4.78,1.9,5.91c1.26,1.13,3.41,1.7,6.42,1.7c1.85,0,3.8-0.34,5.86-1.03v7.91
			c-2.68,1.1-5.93,1.65-9.77,1.65C799.85,3884.99,795.98,3883.64,793.38,3880.93z"/>
	</g>
</g>
<rect x="-2124.11" y="1879.53" class="st5" width="93.45" height="93.45"/>
<rect x="-2124.11" y="1979.11" class="st6" width="93.45" height="93.45"/>
<rect x="-2124.11" y="1779.96" class="st7" width="93.45" height="93.45"/>
<linearGradient id="SVGID_1_" gradientUnits="userSpaceOnUse" x1="-1898.66" y1="-1629.0701" x2="-1898.66" y2="-1336.47" gradientTransform="matrix(1 0 0 -1 0 444)">
	<stop  offset="0" style="stop-color:#FF5722"/>
	<stop  offset="1" style="stop-color:#673AB7"/>
</linearGradient>
<rect x="-1964.53" y="1780.47" class="st8" width="131.74" height="292.6"/>
<linearGradient id="SVGID_00000147910552893872829060000000673418114998814397_" gradientUnits="userSpaceOnUse" x1="-1743.4301" y1="-1629.0701" x2="-1743.4301" y2="-1336.47" gradientTransform="matrix(1 0 0 -1 0 444)">
	<stop  offset="0" style="stop-color:#4CAF50"/>
	<stop  offset="1" style="stop-color:#673AB7"/>
</linearGradient>
<rect x="-1809.3" y="1780.47" style="fill:url(#SVGID_00000147910552893872829060000000673418114998814397_);" width="131.74" height="292.6"/>
</svg>
